<?xml version="1.0" encoding="UTF-8"?>
<svg xmlns="http://www.w3.org/2000/svg" xmlns:xlink="http://www.w3.org/1999/xlink" width="175pt" height="38pt" viewBox="0 0 175 38" version="1.1">
<g id="surface1">
<path style=" stroke:none;fill-rule:nonzero;fill:rgb(16.078431%,71.372549%,96.470588%);fill-opacity:1;" d="M 8.394531 8.246094 C 8.550781 6.464844 10.257812 4.933594 12.054688 5.082031 C 13.207031 5.105469 14.363281 5.117188 15.519531 5.070312 C 15.535156 13.089844 15.527344 21.109375 15.527344 29.128906 C 15.53125 29.414062 15.257812 29.59375 15.019531 29.683594 C 14.175781 29.988281 13.28125 30.140625 12.394531 30.269531 C 11.21875 30.4375 10.007812 30.4375 8.847656 30.15625 C 8.78125 29.675781 8.644531 29.199219 8.398438 28.777344 C 8.375 27.847656 8.414062 26.921875 8.351562 25.996094 C 8.351562 25.949219 8.355469 25.855469 8.359375 25.808594 C 8.378906 24.75 8.359375 23.691406 8.367188 22.636719 C 8.390625 22.117188 8.386719 21.597656 8.367188 21.082031 C 8.367188 17.953125 8.367188 14.824219 8.367188 11.691406 C 8.402344 10.542969 8.367188 9.394531 8.394531 8.246094 Z M 8.394531 8.246094 "/>
<path style=" stroke:none;fill-rule:nonzero;fill:rgb(16.078431%,71.372549%,96.470588%);fill-opacity:1;" d="M 16.230469 8.582031 C 16.230469 6.890625 17.621094 5.265625 19.320312 5.140625 C 27.175781 5.152344 35.03125 5.136719 42.886719 5.152344 C 42.878906 7.167969 42.886719 9.179688 42.882812 11.191406 C 39.648438 11.1875 36.421875 11.191406 33.1875 11.191406 C 33.1875 12.285156 33.195312 13.378906 33.183594 14.472656 C 32.921875 15.203125 32.925781 16.019531 33.199219 16.742188 C 33.171875 18.882812 33.210938 21.023438 33.183594 23.160156 C 32.351562 22.25 31.113281 21.746094 29.886719 21.78125 C 29.0625 21.84375 28.234375 22.097656 27.566406 22.597656 C 26.925781 23.046875 26.4375 23.691406 26.132812 24.410156 C 26.152344 20.027344 26.136719 15.648438 26.140625 11.265625 C 22.84375 11.265625 19.546875 11.265625 16.25 11.265625 C 16.226562 10.371094 16.226562 9.476562 16.230469 8.582031 Z M 16.230469 8.582031 "/>
<path style=" stroke:none;fill-rule:nonzero;fill:rgb(16.078431%,71.372549%,96.470588%);fill-opacity:1;" d="M 68.949219 7.90625 C 69.078125 7.792969 69.175781 7.625 69.335938 7.558594 C 70.371094 7.546875 71.410156 7.558594 72.445312 7.554688 C 72.550781 7.5625 72.664062 7.535156 72.765625 7.574219 C 72.882812 7.679688 73.003906 7.789062 73.097656 7.917969 C 73.105469 9.734375 73.105469 11.550781 73.097656 13.367188 C 74.574219 12.875 76.144531 12.6875 77.695312 12.785156 C 79.253906 12.871094 80.8125 13.210938 82.207031 13.933594 C 83.21875 14.453125 84.125 15.183594 84.816406 16.09375 C 85.585938 17.101562 86.070312 18.316406 86.261719 19.566406 C 86.464844 20.902344 86.414062 22.296875 86 23.589844 C 85.597656 24.847656 84.871094 26.007812 83.910156 26.914062 C 82.15625 28.554688 79.742188 29.398438 77.359375 29.402344 C 75.4375 29.414062 73.4375 29.074219 71.8125 27.992188 C 70.882812 27.378906 70.125 26.511719 69.648438 25.503906 C 69.125 24.425781 68.945312 23.214844 68.949219 22.023438 C 68.949219 17.316406 68.949219 12.613281 68.949219 7.90625 M 73.082031 17.542969 C 73.070312 18.949219 73.078125 20.351562 73.078125 21.757812 C 73.058594 22.332031 73.09375 22.929688 73.359375 23.453125 C 73.773438 24.300781 74.628906 24.855469 75.515625 25.105469 C 76.449219 25.363281 77.433594 25.378906 78.386719 25.242188 C 79.554688 25.058594 80.722656 24.53125 81.464844 23.578125 C 82.335938 22.488281 82.542969 20.917969 82.027344 19.625 C 81.714844 18.839844 81.105469 18.199219 80.375 17.785156 C 79.101562 17.058594 77.59375 16.863281 76.148438 16.910156 C 75.097656 16.941406 74.078125 17.230469 73.082031 17.542969 Z M 73.082031 17.542969 "/>
<path style=" stroke:none;fill-rule:nonzero;fill:rgb(16.078431%,71.372549%,96.470588%);fill-opacity:1;" d="M 142.941406 14.796875 C 144.8125 13.359375 147.199219 12.722656 149.53125 12.695312 C 151.398438 12.660156 153.355469 13.039062 154.886719 14.164062 C 155.894531 14.898438 156.652344 15.964844 157.035156 17.152344 C 157.339844 18.09375 157.355469 19.089844 157.34375 20.066406 C 157.34375 22.566406 157.34375 25.070312 157.34375 27.570312 C 156.082031 28.085938 154.816406 28.585938 153.515625 28.980469 C 152.355469 29.335938 151.148438 29.527344 149.933594 29.535156 C 147.691406 29.566406 145.390625 29.066406 143.496094 27.824219 C 142.4375 27.125 141.535156 26.179688 140.917969 25.066406 C 140.355469 24.078125 140.03125 22.957031 139.945312 21.824219 C 139.832031 20.417969 140.039062 18.96875 140.636719 17.683594 C 141.15625 16.554688 141.957031 15.554688 142.941406 14.796875 M 147.1875 17.191406 C 146.203125 17.488281 145.253906 18.03125 144.652344 18.886719 C 143.984375 19.84375 143.882812 21.113281 144.148438 22.226562 C 144.402344 23.265625 145.175781 24.113281 146.101562 24.609375 C 147.3125 25.261719 148.722656 25.417969 150.078125 25.390625 C 151.164062 25.367188 152.214844 25.050781 153.242188 24.71875 C 153.246094 23.078125 153.242188 21.4375 153.242188 19.796875 C 153.246094 19.367188 153.265625 18.921875 153.105469 18.515625 C 152.917969 17.953125 152.460938 17.519531 151.9375 17.265625 C 151.257812 16.921875 150.488281 16.828125 149.734375 16.835938 C 148.875 16.851562 148.011719 16.945312 147.1875 17.191406 Z M 147.1875 17.191406 "/>
<path style=" stroke:none;fill-rule:nonzero;fill:rgb(0.784314%,46.666667%,74.117647%);fill-opacity:1;" d="M 120.722656 7.90625 C 120.851562 7.792969 120.949219 7.621094 121.113281 7.558594 C 122.253906 7.550781 123.398438 7.550781 124.539062 7.558594 C 124.648438 7.683594 124.78125 7.78125 124.871094 7.917969 C 124.886719 11.902344 124.867188 15.886719 124.882812 19.867188 C 127.429688 17.710938 129.96875 15.546875 132.507812 13.386719 C 132.5625 13.328125 132.625 13.300781 132.703125 13.296875 C 134.503906 13.296875 136.304688 13.296875 138.109375 13.289062 C 138.1875 13.496094 138.257812 13.707031 138.324219 13.917969 C 136.386719 15.398438 134.445312 16.871094 132.511719 18.351562 C 133.972656 18.5 135.394531 19.121094 136.464844 20.140625 C 137.800781 21.398438 138.476562 23.25 138.507812 25.066406 C 138.515625 26.171875 138.507812 27.273438 138.511719 28.378906 C 138.394531 28.496094 138.277344 28.613281 138.160156 28.730469 C 137.015625 28.726562 135.871094 28.734375 134.730469 28.726562 C 134.617188 28.609375 134.503906 28.496094 134.390625 28.386719 C 134.382812 27.503906 134.390625 26.625 134.386719 25.746094 C 134.378906 24.964844 134.183594 24.160156 133.691406 23.542969 C 133.132812 22.835938 132.28125 22.449219 131.429688 22.238281 C 130.527344 22.011719 129.589844 21.988281 128.664062 22.027344 C 128.535156 22.011719 128.453125 22.117188 128.363281 22.191406 C 127.203125 23.171875 126.035156 24.144531 124.875 25.125 C 124.878906 26.117188 124.875 27.113281 124.878906 28.105469 C 124.929688 28.359375 124.675781 28.523438 124.503906 28.65625 C 123.371094 28.664062 122.238281 28.664062 121.105469 28.65625 C 120.949219 28.582031 120.851562 28.425781 120.722656 28.3125 C 120.722656 21.507812 120.726562 14.707031 120.722656 7.90625 Z M 120.722656 7.90625 "/>
<path style=" stroke:none;fill-rule:nonzero;fill:rgb(0.784314%,46.666667%,74.117647%);fill-opacity:1;" d="M 89.375 10.289062 C 89.46875 10.148438 89.597656 10.011719 89.746094 9.925781 C 90.890625 9.914062 92.035156 9.921875 93.179688 9.921875 C 93.292969 10.035156 93.40625 10.152344 93.523438 10.265625 C 93.523438 11.34375 93.519531 12.421875 93.523438 13.503906 C 95.992188 13.503906 98.460938 13.496094 100.929688 13.503906 C 101.070312 13.601562 101.210938 13.730469 101.292969 13.878906 C 101.304688 15.007812 101.304688 16.140625 101.292969 17.273438 C 101.210938 17.417969 101.070312 17.546875 100.929688 17.644531 C 98.460938 17.652344 95.992188 17.644531 93.523438 17.648438 C 93.523438 19.578125 93.523438 21.511719 93.523438 23.445312 C 93.53125 23.949219 93.621094 24.535156 94.054688 24.855469 C 94.707031 25.355469 95.570312 25.390625 96.355469 25.3125 C 97.773438 25.164062 99.152344 24.765625 100.519531 24.371094 C 100.859375 25.503906 101.199219 26.640625 101.542969 27.773438 C 101.640625 27.992188 101.449219 28.210938 101.328125 28.378906 C 99.835938 28.804688 98.335938 29.238281 96.789062 29.410156 C 95.460938 29.5625 94.085938 29.425781 92.851562 28.902344 C 91.824219 28.472656 90.90625 27.75 90.308594 26.800781 C 89.667969 25.808594 89.382812 24.621094 89.375 23.445312 C 89.363281 21.511719 89.375 19.582031 89.367188 17.648438 C 88.617188 17.644531 87.863281 17.652344 87.113281 17.644531 C 86.960938 17.558594 86.84375 17.417969 86.742188 17.285156 C 86.730469 16.148438 86.734375 15.007812 86.738281 13.867188 C 86.828125 13.730469 86.964844 13.628906 87.074219 13.507812 C 87.835938 13.496094 88.601562 13.5 89.363281 13.503906 C 89.378906 12.433594 89.359375 11.359375 89.375 10.289062 Z M 89.375 10.289062 "/>
<path style=" stroke:none;fill-rule:nonzero;fill:rgb(100%,100%,100%);fill-opacity:1;" d="M 33.183594 14.472656 C 33.632812 13.332031 34.804688 12.535156 36.023438 12.515625 C 36.867188 12.558594 37.699219 12.929688 38.257812 13.566406 C 38.617188 13.992188 38.894531 14.507812 38.917969 15.074219 C 40.394531 15.046875 41.9375 15.125 43.28125 15.808594 C 44.15625 16.28125 44.34375 17.558594 43.785156 18.34375 C 42.351562 20.328125 40.382812 21.847656 38.300781 23.09375 C 36.988281 23.882812 35.621094 24.582031 34.261719 25.28125 C 34.234375 25.53125 34.292969 25.8125 34.269531 26.078125 C 34.351562 27.945312 32.957031 29.71875 31.164062 30.15625 C 29.539062 30.636719 27.671875 29.984375 26.664062 28.625 C 24.394531 29.378906 22.148438 30.203125 19.859375 30.890625 C 16.6875 31.851562 13.425781 32.609375 10.105469 32.757812 C 9.40625 32.773438 8.707031 32.761719 8.007812 32.765625 C 7.398438 33.457031 6.503906 33.878906 5.585938 33.914062 C 4.707031 33.949219 3.8125 33.636719 3.160156 33.042969 C 2.472656 32.429688 2.074219 31.527344 2.027344 30.613281 C 2 29.511719 2.5 28.390625 3.402344 27.746094 C 3.933594 27.335938 4.59375 27.121094 5.253906 27.0625 C 5.640625 27.019531 6.023438 27.121094 6.398438 27.199219 C 6.867188 26.792969 7.378906 26.4375 7.894531 26.09375 C 8.046875 25.992188 8.1875 25.875 8.359375 25.808594 C 8.355469 25.855469 8.351562 25.949219 8.351562 25.996094 C 8.34375 26.15625 8.34375 26.316406 8.34375 26.480469 C 7.914062 26.78125 7.570312 27.183594 7.183594 27.535156 C 7.679688 27.84375 8.109375 28.261719 8.398438 28.777344 C 8.644531 29.199219 8.78125 29.675781 8.847656 30.15625 C 8.867188 30.335938 8.863281 30.519531 8.859375 30.703125 C 11.917969 30.722656 14.953125 30.195312 17.902344 29.417969 C 20.605469 28.71875 23.25 27.804688 25.917969 26.984375 C 25.699219 26.132812 25.816406 25.222656 26.132812 24.410156 C 26.4375 23.691406 26.925781 23.046875 27.566406 22.597656 C 28.234375 22.097656 29.0625 21.84375 29.886719 21.78125 C 31.113281 21.746094 32.351562 22.25 33.183594 23.160156 C 33.289062 23.277344 33.386719 23.402344 33.480469 23.523438 C 35.691406 22.382812 37.917969 21.195312 39.757812 19.496094 C 40.25 19.0625 40.679688 18.554688 41.042969 18.011719 C 41.304688 17.601562 41.472656 17.019531 41.160156 16.59375 C 40.601562 15.941406 39.707031 15.800781 38.910156 15.648438 C 38.9375 16.089844 38.898438 16.546875 38.6875 16.945312 C 38.28125 17.78125 37.460938 18.390625 36.550781 18.546875 C 35.796875 18.664062 34.984375 18.546875 34.347656 18.105469 C 33.839844 17.777344 33.445312 17.292969 33.199219 16.742188 C 32.925781 16.019531 32.921875 15.203125 33.183594 14.472656 M 35.59375 13.234375 C 34.542969 13.457031 33.621094 14.425781 33.667969 15.542969 C 33.566406 16.816406 34.761719 17.996094 36.023438 17.90625 C 36.746094 17.960938 37.441406 17.558594 37.871094 16.996094 C 38.082031 16.710938 38.265625 16.375 38.238281 16.011719 C 38.226562 15.632812 38.257812 15.25 38.226562 14.871094 C 37.921875 13.777344 36.707031 13.011719 35.59375 13.234375 M 29.257812 22.546875 C 27.914062 22.84375 26.808594 23.976562 26.550781 25.332031 C 26.3125 26.445312 26.652344 27.660156 27.429688 28.488281 C 28.085938 29.210938 29.054688 29.648438 30.03125 29.636719 C 30.914062 29.660156 31.796875 29.3125 32.449219 28.722656 C 33.0625 28.164062 33.496094 27.386719 33.589844 26.554688 C 33.59375 26.046875 33.648438 25.523438 33.488281 25.03125 C 33.246094 24.210938 32.707031 23.488281 31.992188 23.027344 C 31.191406 22.511719 30.183594 22.324219 29.257812 22.546875 M 4.804688 27.8125 C 4.148438 27.964844 3.5625 28.375 3.183594 28.929688 C 2.792969 29.496094 2.625 30.207031 2.726562 30.886719 C 2.855469 31.851562 3.535156 32.710938 4.4375 33.058594 C 4.886719 33.246094 5.386719 33.269531 5.863281 33.214844 C 6.683594 33.097656 7.433594 32.574219 7.835938 31.847656 C 8.207031 31.191406 8.296875 30.382812 8.0625 29.664062 C 7.832031 28.910156 7.257812 28.273438 6.535156 27.960938 C 5.996094 27.726562 5.378906 27.660156 4.804688 27.8125 Z M 4.804688 27.8125 "/>
<path style=" stroke:none;fill-rule:nonzero;fill:rgb(100%,100%,100%);fill-opacity:1;" d="M 163.0625 13.917969 C 164.621094 13.125 166.371094 12.773438 168.113281 12.707031 C 168.921875 12.679688 169.734375 12.695312 170.546875 12.691406 C 170.664062 12.804688 170.78125 12.921875 170.894531 13.039062 C 170.894531 14.1875 170.894531 15.339844 170.894531 16.488281 C 170.78125 16.605469 170.664062 16.722656 170.546875 16.835938 C 169.195312 16.851562 167.828125 16.761719 166.496094 17.050781 C 165.5 17.261719 164.488281 17.652344 163.792969 18.425781 C 163.160156 19.121094 162.925781 20.089844 162.917969 21.015625 C 162.917969 23.46875 162.914062 25.921875 162.921875 28.375 C 162.808594 28.492188 162.691406 28.605469 162.578125 28.726562 C 161.433594 28.734375 160.289062 28.730469 159.144531 28.726562 C 158.992188 28.652344 158.890625 28.492188 158.765625 28.378906 C 158.765625 26.105469 158.765625 23.832031 158.765625 21.558594 C 158.738281 20.265625 158.894531 18.953125 159.40625 17.761719 C 160.097656 16.082031 161.445312 14.71875 163.0625 13.917969 Z M 163.0625 13.917969 "/>
<path style=" stroke:none;fill-rule:nonzero;fill:rgb(100%,100%,100%);fill-opacity:1;" d="M 54.449219 13.84375 C 55.804688 13.140625 57.328125 12.800781 58.851562 12.765625 C 60.171875 12.730469 61.511719 12.898438 62.75 13.375 C 63.789062 13.769531 64.757812 14.375 65.535156 15.179688 C 66.390625 16.066406 66.992188 17.183594 67.304688 18.375 C 67.527344 19.210938 67.597656 20.082031 67.589844 20.949219 C 63.429688 21.859375 59.269531 22.769531 55.105469 23.675781 C 55.84375 24.449219 56.863281 24.898438 57.890625 25.125 C 59.3125 25.421875 60.800781 25.382812 62.214844 25.058594 C 63.445312 24.789062 64.613281 24.296875 65.71875 23.699219 C 65.882812 23.757812 66.046875 23.816406 66.210938 23.878906 C 66.679688 25.027344 67.15625 26.175781 67.628906 27.324219 C 65.761719 28.347656 63.738281 29.164062 61.609375 29.382812 C 59.265625 29.621094 56.820312 29.398438 54.675781 28.363281 C 53.644531 27.871094 52.691406 27.191406 51.9375 26.324219 C 51.027344 25.289062 50.40625 24 50.167969 22.640625 C 49.933594 21.292969 50 19.886719 50.402344 18.582031 C 51.042969 16.539062 52.542969 14.796875 54.449219 13.84375 M 56.515625 17.527344 C 55.570312 18.019531 54.839844 18.890625 54.480469 19.894531 C 56.117188 19.539062 57.753906 19.183594 59.390625 18.824219 C 60.460938 18.605469 61.519531 18.335938 62.597656 18.148438 C 62.074219 17.496094 61.25 17.179688 60.457031 17.019531 C 59.136719 16.78125 57.710938 16.882812 56.515625 17.527344 Z M 56.515625 17.527344 "/>
<path style=" stroke:none;fill-rule:nonzero;fill:rgb(0.392157%,34.117647%,60.784314%);fill-opacity:1;" d="M 107.027344 13.476562 C 108.542969 12.867188 110.207031 12.675781 111.835938 12.792969 C 113.171875 12.886719 114.503906 13.246094 115.671875 13.914062 C 116.632812 14.460938 117.472656 15.21875 118.082031 16.144531 C 119.03125 17.546875 119.40625 19.269531 119.367188 20.949219 C 115.207031 21.855469 111.050781 22.769531 106.890625 23.675781 C 107.605469 24.449219 108.613281 24.878906 109.621094 25.113281 C 111.078125 25.429688 112.609375 25.382812 114.058594 25.042969 C 115.261719 24.769531 116.410156 24.285156 117.492188 23.699219 C 117.660156 23.757812 117.824219 23.816406 117.988281 23.882812 C 118.453125 25.03125 118.929688 26.175781 119.40625 27.320312 C 118.222656 27.988281 116.96875 28.527344 115.667969 28.925781 C 114.316406 29.332031 112.902344 29.484375 111.496094 29.46875 C 109.292969 29.453125 107.054688 28.90625 105.214844 27.652344 C 104.164062 26.941406 103.28125 25.972656 102.699219 24.84375 C 102.085938 23.691406 101.800781 22.382812 101.808594 21.082031 C 101.804688 19.683594 102.140625 18.277344 102.84375 17.066406 C 103.757812 15.421875 105.28125 14.15625 107.027344 13.476562 M 108.335938 17.503906 C 107.371094 17.992188 106.617188 18.871094 106.257812 19.894531 C 108.941406 19.308594 111.628906 18.726562 114.3125 18.140625 C 114.3125 18.121094 114.316406 18.089844 114.316406 18.070312 C 113.757812 17.453125 112.9375 17.148438 112.140625 17 C 110.863281 16.792969 109.496094 16.890625 108.335938 17.503906 Z M 108.335938 17.503906 "/>
<path style=" stroke:none;fill-rule:nonzero;fill:rgb(0.392157%,34.117647%,60.784314%);fill-opacity:1;" d="M 35.59375 13.234375 C 36.707031 13.011719 37.921875 13.777344 38.226562 14.871094 C 38.257812 15.25 38.226562 15.632812 38.238281 16.011719 C 38.265625 16.375 38.082031 16.710938 37.871094 16.996094 C 37.441406 17.558594 36.746094 17.960938 36.023438 17.90625 C 34.761719 17.996094 33.566406 16.816406 33.667969 15.542969 C 33.621094 14.425781 34.542969 13.457031 35.59375 13.234375 Z M 35.59375 13.234375 "/>
<path style=" stroke:none;fill-rule:nonzero;fill:rgb(0.392157%,34.117647%,60.784314%);fill-opacity:1;" d="M 29.257812 22.546875 C 30.183594 22.324219 31.191406 22.511719 31.992188 23.027344 C 32.707031 23.488281 33.246094 24.210938 33.488281 25.03125 C 33.648438 25.523438 33.59375 26.046875 33.589844 26.554688 C 33.496094 27.386719 33.0625 28.164062 32.449219 28.722656 C 31.796875 29.3125 30.914062 29.660156 30.03125 29.636719 C 29.054688 29.648438 28.085938 29.210938 27.429688 28.488281 C 26.652344 27.660156 26.3125 26.445312 26.550781 25.332031 C 26.808594 23.976562 27.914062 22.84375 29.257812 22.546875 Z M 29.257812 22.546875 "/>
<path style=" stroke:none;fill-rule:nonzero;fill:rgb(0.392157%,34.117647%,60.784314%);fill-opacity:1;" d="M 4.804688 27.8125 C 5.378906 27.660156 5.996094 27.726562 6.535156 27.960938 C 7.257812 28.273438 7.832031 28.910156 8.0625 29.664062 C 8.296875 30.382812 8.207031 31.191406 7.835938 31.847656 C 7.433594 32.574219 6.683594 33.097656 5.863281 33.214844 C 5.386719 33.269531 4.886719 33.246094 4.4375 33.058594 C 3.535156 32.710938 2.855469 31.851562 2.726562 30.886719 C 2.625 30.207031 2.792969 29.496094 3.183594 28.929688 C 3.5625 28.375 4.148438 27.964844 4.804688 27.8125 Z M 4.804688 27.8125 "/>
</g>
</svg>
